<?xml version="1.0" encoding="UTF-8" standalone="no"?>
<!-- Created with Inkscape (http://www.inkscape.org/) -->

<svg
   xmlns:dc="http://purl.org/dc/elements/1.1/"
   xmlns:cc="http://creativecommons.org/ns#"
   xmlns:rdf="http://www.w3.org/1999/02/22-rdf-syntax-ns#"
   xmlns:svg="http://www.w3.org/2000/svg"
   xmlns="http://www.w3.org/2000/svg"
   xmlns:sodipodi="http://sodipodi.sourceforge.net/DTD/sodipodi-0.dtd"
   xmlns:inkscape="http://www.inkscape.org/namespaces/inkscape"
   width="64px"
   height="64px"
   id="svg3024"
   version="1.1"
   inkscape:version="0.48.2 r9819"
   sodipodi:docname="Nuovo documento 4">
  <defs
     id="defs3026" />
  <sodipodi:namedview
     id="base"
     pagecolor="#ffffff"
     bordercolor="#666666"
     borderopacity="1.0"
     inkscape:pageopacity="0.0"
     inkscape:pageshadow="2"
     inkscape:zoom="3.8890873"
     inkscape:cx="32"
     inkscape:cy="32"
     inkscape:current-layer="layer1"
     showgrid="true"
     inkscape:document-units="px"
     inkscape:grid-bbox="true"
     inkscape:window-width="1366"
     inkscape:window-height="705"
     inkscape:window-x="-4"
     inkscape:window-y="-4"
     inkscape:window-maximized="1" />
  <metadata
     id="metadata3029">
    <rdf:RDF>
      <cc:Work
         rdf:about="">
        <dc:format>image/svg+xml</dc:format>
        <dc:type
           rdf:resource="http://purl.org/dc/dcmitype/StillImage" />
        <dc:title></dc:title>
      </cc:Work>
    </rdf:RDF>
  </metadata>
  <g
     id="layer1"
     inkscape:label="Layer 1"
     inkscape:groupmode="layer">
    <path
       inkscape:connector-curvature="0"
       style="fill:#414142;fill-opacity:1;fill-rule:nonzero;stroke:none;stroke-width:1;marker:none;visibility:visible;display:inline;overflow:visible;enable-background:accumulate"
       inkscape:transform-center-y="-11.039878"
       d="m 61.958647,31.946739 c 0,16.649713 -13.512811,30.162524 -30.162524,30.162524 -16.649713,0 -30.1625233,-13.512811 -30.1625233,-30.162524 0,-16.649713 13.5128103,-30.1625251 30.1625233,-30.1625251 16.649713,0 30.162524,13.5128121 30.162524,30.1625251 z"
       id="path3436" />
    <path
       inkscape:connector-curvature="0"
       id="path3438"
       d="m 31.79613,0.75427996 c -17.21825,0 -31.19248004,13.97423104 -31.19248004,31.19247404 0,17.218228 13.97423004,31.19245 31.19248004,31.19245 17.218243,0 31.192467,-13.974222 31.192467,-31.19245 0,-17.218243 -13.974224,-31.19247404 -31.192467,-31.19247404 z m 0,2.42608434 c 15.865464,-7.4e-6 28.723066,12.9009417 28.723066,28.7663897 0,15.86544 -12.857625,28.723059 -28.723066,28.723059 -15.865455,0 -28.7230722,-12.857626 -28.7230722,-28.723059 C 3.0730657,16.081306 15.930675,3.1803643 31.79613,3.1803643 z"
       style="fill:#8a979b;fill-opacity:1;fill-rule:nonzero;stroke:none;stroke-width:1;marker:none;visibility:visible;display:inline;overflow:visible;enable-background:accumulate"
       inkscape:transform-center-y="-11.039879" />
    <path
       inkscape:connector-curvature="0"
       sodipodi:nodetypes="cssscccccccccccccc"
       id="path3440"
       d="m 31.79613,12.62517 c -1.488081,0 -2.729357,1.197945 -2.729349,2.68601 0,1.488081 1.241252,2.686049 2.729349,2.686026 1.488074,0 2.686026,-1.197945 2.686019,-2.686026 0,-1.488065 -1.197954,-2.686042 -2.686019,-2.68601 z m -20.23179,2.382752 13.560061,8.231349 5.513378,35.871332 0,-28.246506 2.489989,0 0,28.246506 5.296761,-35.871332 13.603384,-8.231349 -18.900145,6.281817 0,6.541759 -2.489989,0 0,-6.541759 -19.073439,-6.281817 z"
       style="fill:#f58220;fill-opacity:1;fill-rule:nonzero;stroke:none;stroke-width:1;marker:none;visibility:visible;display:inline;overflow:visible;enable-background:accumulate"
       inkscape:transform-center-y="-7.118734" />
  </g>
</svg>
