<?xml version="1.0" encoding="UTF-8" standalone="no"?>
<!-- Created with Inkscape (http://www.inkscape.org/) -->

<svg
   xmlns:dc="http://purl.org/dc/elements/1.1/"
   xmlns:cc="http://creativecommons.org/ns#"
   xmlns:rdf="http://www.w3.org/1999/02/22-rdf-syntax-ns#"
   xmlns:svg="http://www.w3.org/2000/svg"
   xmlns="http://www.w3.org/2000/svg"
   xmlns:sodipodi="http://sodipodi.sourceforge.net/DTD/sodipodi-0.dtd"
   xmlns:inkscape="http://www.inkscape.org/namespaces/inkscape"
   width="744.09448819"
   height="1052.3622047"
   id="svg3286"
   version="1.1"
   inkscape:version="0.48.4 r9939"
   sodipodi:docname="New document 3">
  <defs
     id="defs3288" />
  <sodipodi:namedview
     id="base"
     pagecolor="#ffffff"
     bordercolor="#666666"
     borderopacity="1.0"
     inkscape:pageopacity="0.0"
     inkscape:pageshadow="2"
     inkscape:zoom="3.959798"
     inkscape:cx="465.91373"
     inkscape:cy="440.70303"
     inkscape:document-units="px"
     inkscape:current-layer="layer1"
     showgrid="false"
     inkscape:window-width="830"
     inkscape:window-height="642"
     inkscape:window-x="44"
     inkscape:window-y="44"
     inkscape:window-maximized="0" />
  <metadata
     id="metadata3291">
    <rdf:RDF>
      <cc:Work
         rdf:about="">
        <dc:format>image/svg+xml</dc:format>
        <dc:type
           rdf:resource="http://purl.org/dc/dcmitype/StillImage" />
        <dc:title></dc:title>
      </cc:Work>
    </rdf:RDF>
  </metadata>
  <g
     inkscape:label="Layer 1"
     inkscape:groupmode="layer"
     id="layer1">
    <path
       inkscape:connector-curvature="0"
       style="fill:#414142;fill-opacity:1;fill-rule:nonzero;stroke:none;stroke-width:1;marker:none;visibility:visible;display:inline;overflow:visible;enable-background:accumulate"
       inkscape:transform-center-y="-14"
       d="m 503.96429,620.93361 c 0,21.114 -17.136,38.25 -38.25,38.25 -21.114,0 -38.25,-17.136 -38.25,-38.25 0,-21.114 17.136,-38.25 38.25,-38.25 21.114,0 38.25,17.136 38.25,38.25 z"
       id="path3436" />
    <path
       inkscape:connector-curvature="0"
       id="path3438"
       d="m 465.7143,581.37752 c -21.83498,0 -39.55612,17.72114 -39.55612,39.55611 0,21.83495 17.72114,39.55608 39.55612,39.55608 21.83497,0 39.5561,-17.72113 39.5561,-39.55608 0,-21.83497 -17.72113,-39.55611 -39.5561,-39.55611 z m 0,3.07659 c 20.11947,-10e-6 36.42458,16.36007 36.42458,36.47952 0,20.11944 -16.30514,36.42457 -36.42458,36.42457 -20.11946,0 -36.42459,-16.30514 -36.42459,-36.42457 10e-6,-20.11945 16.30513,-36.47952 36.42459,-36.47952 z"
       style="fill:#8a979b;fill-opacity:1;fill-rule:nonzero;stroke:none;stroke-width:1;marker:none;visibility:visible;display:inline;overflow:visible;enable-background:accumulate"
       inkscape:transform-center-y="-14" />
    <path
       inkscape:connector-curvature="0"
       sodipodi:nodetypes="cssscccccccccccccc"
       id="path3440"
       d="m 465.7143,596.43135 c -1.88708,0 -3.46118,1.51915 -3.46117,3.40621 0,1.88708 1.57407,3.40626 3.46117,3.40623 1.88707,0 3.40623,-1.51915 3.40622,-3.40623 0,-1.88706 -1.51916,-3.40625 -3.40622,-3.40621 z m -25.65654,3.02164 17.19592,10.43842 6.99168,45.48951 0,-35.82024 3.15763,0 0,35.82024 6.71698,-45.48951 17.25086,-10.43842 -23.96784,7.96616 0,8.2958 -3.15763,0 0,-8.2958 -24.1876,-7.96616 z"
       style="fill:#f58220;fill-opacity:1;fill-rule:nonzero;stroke:none;stroke-width:1;marker:none;visibility:visible;display:inline;overflow:visible;enable-background:accumulate"
       inkscape:transform-center-y="-9.02748" />
  </g>
</svg>
